# xmcd
#
# Track frame offsets:
#	150
#	12797
#	27431
#	39935
#	46693
#	61762
#	76094
#	88091
#	100630
#	112877
#	124864
#	140765
#	160128
#	181450
#	189669
#	206311
#
# Disc length: 2896 seconds
#
# Revision: 1
# Processed by: cddbd v1.5.1PL0 Copyright (c) Steve Scherf et al.
# Submitted via: audiograbber 1.83.01
#
DISCID=c10b4e10
DTITLE=Nezmari - Hodina usmireni
DYEAR=1900
DGENRE=Country
TTITLE0=Byvala zem
TTITLE1=Venkovan
TTITLE2=Dopis
TTITLE3=Po noci prijde noc
TTITLE4=Ty ja
TTITLE5=Nechte mi blues
TTITLE6=Pisen o tom ze zas bude lip
TTITLE7=Cervený dvur
TTITLE8=Krajina
TTITLE9=Betonove mesto
TTITLE10=Slepi ptaci
TTITLE11=Sejdeme se v panu
TTITLE12=Hodina usmireni
TTITLE13=Jeste jednou
TTITLE14=Jdem zpatky do lesu
TTITLE15=Nezachazej slunce
EXTD=
EXTT0=
EXTT1=
EXTT2=
EXTT3=
EXTT4=
EXTT5=
EXTT6=
EXTT7=
EXTT8=
EXTT9=
EXTT10=
EXTT11=
EXTT12=
EXTT13=
EXTT14=
EXTT15=
PLAYORDER=
